<?xml version="1.0" encoding="UTF-8"?><svg id="Ebene_2" xmlns="http://www.w3.org/2000/svg" viewBox="0 0 210.98 118.04"><g id="Ebene_1-2"><g><path d="m37.71,54.08v1.14l-25.96,37.86h11.34c1.91,0,3.59-.2,5.02-.6s2.64-1.02,3.62-1.88c.98-.85,1.76-2,2.36-3.44.59-1.44,1-3.21,1.23-5.29h1.57c-.14,1.21-.21,2.81-.21,4.78,0,.76.03,1.86.1,3.3s.19,2.92.38,4.44c-1.69-.08-3.53-.12-5.53-.14-2-.02-4-.03-5.98-.03h-5.5c-2.78,0-5.69,0-8.75.03-3.05.02-5.92.07-8.61.14v-1.14l26.1-37.86h-11.34c-2,0-3.7.19-5.09.57-1.39.38-2.55.99-3.48,1.82s-1.67,1.96-2.22,3.39c-.55,1.42-.96,3.16-1.23,5.21h-1.57c.09-.57.15-1.25.17-2.05.02-.8.03-1.63.03-2.51,0-.76-.03-1.86-.1-3.3s-.19-2.92-.38-4.44c1.64.04,3.43.08,5.36.11,1.94.04,3.87.06,5.81.06h5.29c2.78,0,5.74,0,8.88-.03,3.14-.02,6.04-.07,8.68-.14Z" fill="#2f5250"/><path d="m74.2,64.39v23.86c0,1.71.35,2.97,1.06,3.79.71.82,1.99,1.22,3.86,1.22v1.2c-1.41-.11-2.83-.17-4.24-.17-1.5,0-2.94.06-4.3.17-1.37.11-2.62.32-3.76.63v-6.21c-1.14,2.28-2.72,3.9-4.75,4.87-2.03.97-4.16,1.45-6.39,1.45-1.69,0-3.12-.2-4.3-.6-1.19-.4-2.16-.92-2.94-1.57-.82-.76-1.39-1.74-1.71-2.93-.32-1.2-.48-2.7-.48-4.53v-14.35c0-1.71-.34-2.97-1.03-3.79-.68-.82-1.98-1.22-3.89-1.22v-1.2c1.46.11,2.87.17,4.24.17,1.5,0,2.94-.07,4.3-.2,1.37-.13,2.62-.33,3.76-.6v22.77c0,1.1.09,2.11.27,3.02.18.91.62,1.63,1.3,2.16.68.53,1.78.8,3.28.8,1.59,0,3.02-.4,4.27-1.2s2.24-1.88,2.97-3.25c.73-1.37,1.09-2.9,1.09-4.61v-12.87c0-1.71-.34-2.97-1.02-3.79-.68-.82-1.98-1.22-3.89-1.22v-1.2c1.46.11,2.87.17,4.24.17,1.5,0,2.94-.07,4.3-.2,1.37-.13,2.62-.33,3.76-.6Z" fill="#2f5250"/><path d="m104.4,64.21c1.32,0,2.45.23,3.38.68.93.46,1.64,1.03,2.12,1.74.48.7.72,1.49.72,2.36,0,1.1-.4,2.04-1.2,2.82-.8.78-1.86,1.17-3.18,1.17-1.14,0-2.11-.29-2.9-.85-.8-.57-1.2-1.35-1.2-2.33,0-.83.26-1.55.79-2.14.52-.59,1.13-1.05,1.81-1.39-.46-.3-1-.44-1.64-.4-1.23.04-2.37.37-3.42,1-1.05.63-1.94,1.42-2.67,2.39s-1.3,2-1.71,3.1c-.41,1.1-.61,2.13-.61,3.08v13.09c0,1.86.61,3.1,1.84,3.73,1.23.63,2.94.94,5.12.94v1.2c-1.05-.04-2.54-.08-4.48-.14-1.94-.06-3.97-.08-6.12-.08-1.64,0-3.28.03-4.92.08-1.64.06-2.89.11-3.76.14v-1.2c1.78,0,3.04-.29,3.79-.85.75-.57,1.13-1.65,1.13-3.25v-17.88c0-1.71-.34-2.97-1.03-3.79-.68-.82-1.98-1.22-3.89-1.22v-1.2c1.46.11,2.87.17,4.24.17,1.55,0,2.99-.07,4.34-.2,1.34-.13,2.58-.33,3.72-.6v6.55c.55-1.1,1.27-2.16,2.19-3.19.91-1.03,2-1.87,3.28-2.53,1.27-.66,2.69-1,4.24-1Z" fill="#2f5250"/><path d="m128.99,64.21c4.01,0,7.15,1.01,9.43,3.02,2.28,2.01,3.42,5.2,3.42,9.57h-23.57l-.14-1.08h16.47c.04-1.86-.14-3.58-.55-5.15s-1.05-2.84-1.91-3.79c-.87-.95-2-1.42-3.42-1.42-1.96,0-3.66.86-5.09,2.59-1.43,1.73-2.31,4.49-2.63,8.28l.21.28c-.05.53-.09,1.11-.14,1.74-.05.63-.07,1.24-.07,1.85,0,2.62.48,4.82,1.44,6.6.96,1.79,2.21,3.12,3.76,4.01,1.55.89,3.12,1.34,4.71,1.34,1.23,0,2.43-.16,3.59-.48,1.16-.32,2.27-.87,3.31-1.65s1.98-1.85,2.8-3.22l1.37.46c-.55,1.29-1.39,2.56-2.53,3.81s-2.6,2.27-4.37,3.05-3.85,1.17-6.22,1.17c-3.19,0-5.97-.6-8.33-1.79-2.37-1.2-4.19-2.91-5.47-5.15-1.28-2.24-1.91-4.9-1.91-7.97,0-3.38.66-6.26,1.98-8.65,1.32-2.39,3.18-4.22,5.57-5.49,2.39-1.27,5.16-1.91,8.3-1.91Z" fill="#2f5250"/><path d="m158.51,55.62v9.45h9.43v1.14h-9.43v22.38c0,1.56.34,2.66,1.03,3.3.68.65,1.66.97,2.94.97,1.18,0,2.24-.4,3.18-1.2s1.74-2.14,2.43-4.04l1.3.4c-.55,2.01-1.51,3.71-2.9,5.1-1.39,1.39-3.43,2.08-6.12,2.08-1.55,0-2.85-.16-3.89-.48s-1.96-.79-2.73-1.39c-1-.87-1.69-1.92-2.05-3.13-.37-1.21-.55-2.83-.55-4.84v-19.13h-6.29v-1.14h6.29v-8.31c1.41-.04,2.73-.14,3.96-.31s2.37-.45,3.42-.83Z" fill="#2f5250"/><path d="m180.17,55.62v9.45h9.43v1.14h-9.43v22.38c0,1.56.34,2.66,1.02,3.3.68.65,1.66.97,2.94.97,1.18,0,2.24-.4,3.18-1.2.93-.8,1.74-2.14,2.42-4.04l1.3.4c-.55,2.01-1.51,3.71-2.9,5.1-1.39,1.39-3.43,2.08-6.11,2.08-1.55,0-2.85-.16-3.89-.48-1.05-.32-1.96-.79-2.73-1.39-1-.87-1.69-1.92-2.05-3.13s-.55-2.83-.55-4.84v-19.13h-6.29v-1.14h6.29v-8.31c1.41-.04,2.73-.14,3.96-.31,1.23-.17,2.37-.45,3.42-.83Z" fill="#2f5250"/><path d="m204.63,64.39v24.71c0,1.59.38,2.68,1.13,3.25s2.02.85,3.79.85v1.2c-.78-.04-1.97-.08-3.59-.14-1.62-.06-3.27-.08-4.95-.08-1.6,0-3.23.03-4.92.08-1.69.06-2.94.11-3.76.14v-1.2c1.78,0,3.04-.29,3.79-.85s1.13-1.65,1.13-3.25v-17.88c0-1.71-.34-2.97-1.03-3.79-.68-.82-1.98-1.22-3.89-1.22v-1.2c1.46.11,2.87.17,4.24.17,1.55,0,2.99-.07,4.34-.2,1.34-.13,2.59-.33,3.72-.6Zm-4.1-13.72c1.41,0,2.6.37,3.55,1.11s1.44,1.66,1.44,2.76-.48,2.02-1.44,2.76-2.14,1.11-3.55,1.11-2.6-.37-3.55-1.11-1.44-1.66-1.44-2.76.48-2.02,1.44-2.76,2.14-1.11,3.55-1.11Z" fill="#2f5250"/></g><g><path d="m71.85,113.63c0-.3-.07-.56-.21-.77-.14-.21-.37-.39-.67-.56-.3-.16-.76-.33-1.38-.5s-1.08-.34-1.38-.51-.53-.37-.68-.6c-.14-.23-.21-.5-.21-.83,0-.52.22-.94.65-1.26.44-.32,1-.48,1.7-.48.46,0,.87.09,1.23.27.36.18.64.43.84.75.2.32.3.68.3,1.09h-.26c0-.53-.2-.97-.59-1.32-.39-.35-.9-.52-1.52-.52s-1.13.14-1.52.42c-.39.28-.58.63-.58,1.05s.17.77.5,1.03c.34.26.89.49,1.66.69.77.2,1.34.43,1.69.7.46.34.68.79.68,1.35,0,.36-.1.67-.3.95-.2.28-.49.49-.86.64s-.79.22-1.25.22c-.51,0-.98-.08-1.39-.26-.41-.17-.72-.41-.92-.73-.21-.32-.31-.69-.31-1.12h.26c0,.58.22,1.04.65,1.36.44.32,1,.48,1.7.48.62,0,1.13-.14,1.54-.43.4-.29.61-.66.61-1.11Z" fill="#2f5250"/><path d="m75.17,115.17c.48,0,.87-.13,1.18-.38.31-.25.48-.61.51-1.05h.26c-.03.51-.22.92-.59,1.23-.37.31-.82.47-1.37.47-.66,0-1.19-.24-1.57-.72-.39-.48-.58-1.13-.58-1.95v-.18c0-.8.19-1.44.58-1.92.39-.48.91-.72,1.56-.72.56,0,1.02.17,1.39.5.37.34.56.78.58,1.34h-.26c-.02-.47-.19-.86-.5-1.14-.31-.29-.71-.43-1.2-.43-.59,0-1.05.21-1.38.64-.33.42-.5,1.01-.5,1.77v.17c0,.74.17,1.32.51,1.74.34.42.8.63,1.39.63Z" fill="#2f5250"/><path d="m78.71,111.28c.17-.41.43-.73.76-.97.34-.24.71-.36,1.11-.36.57,0,.99.16,1.26.48.27.32.41.8.42,1.45v3.45h-.26v-3.45c0-.57-.12-.98-.35-1.26-.23-.27-.59-.41-1.08-.41-.46,0-.85.16-1.18.49-.33.32-.56.74-.68,1.25v3.38h-.26v-7.5h.26v3.45Z" fill="#2f5250"/><path d="m87.46,115.33v-.85c-.16.29-.38.53-.68.7-.3.17-.68.26-1.14.26-.58,0-1.01-.17-1.3-.5-.29-.34-.44-.83-.44-1.47v-3.4h.26v3.41c0,.56.13.98.38,1.27.25.29.61.43,1.08.43.5,0,.92-.12,1.23-.36.32-.24.52-.59.6-1.04v-3.72h.27v5.28h-.27Z" fill="#2f5250"/><path d="m89.66,111.28c.17-.41.43-.73.76-.97.34-.24.71-.36,1.11-.36.57,0,.99.16,1.26.48.27.32.41.8.42,1.45v3.45h-.26v-3.45c0-.57-.12-.98-.35-1.26-.23-.27-.59-.41-1.08-.41-.46,0-.85.16-1.18.49-.33.32-.56.74-.68,1.25v3.38h-.26v-7.5h.26v3.45Z" fill="#2f5250"/><path d="m98.65,115.33h-.26v-3.55c0-.53-.12-.92-.35-1.18-.23-.26-.59-.39-1.1-.39-.58,0-1.05.25-1.42.77-.22.31-.36.64-.43,1.01v3.34h-.27v-5.28h.27v1.25c.18-.43.43-.76.77-1s.7-.35,1.1-.35c.44,0,.8.1,1.09.29.28.2.47.51.55.96.16-.38.41-.68.76-.91.35-.23.75-.34,1.18-.34.57,0,.99.16,1.27.48s.42.81.42,1.45v3.45h-.26v-3.42c0-.58-.12-1.01-.35-1.29-.23-.28-.6-.41-1.1-.41-.64,0-1.15.26-1.52.77-.21.29-.33.57-.35.84v3.51Z" fill="#2f5250"/><path d="m107.25,115.33c-.06-.22-.1-.55-.1-.97-.21.34-.49.6-.85.79s-.77.28-1.23.28c-.49,0-.88-.13-1.18-.4-.3-.27-.45-.61-.45-1.04,0-.49.22-.87.66-1.17.44-.29,1.02-.44,1.75-.45h1.3v-.77c0-.44-.14-.79-.42-1.03s-.68-.37-1.19-.37c-.48,0-.88.12-1.21.37s-.48.55-.48.92h-.26c0-.44.19-.8.57-1.1.38-.3.84-.45,1.39-.45s1.02.14,1.36.43c.34.29.51.69.52,1.2v2.52c0,.58.05.97.14,1.18v.04h-.3Zm-2.18-.17c.5,0,.92-.11,1.28-.33s.62-.53.8-.93v-1.25h-1.22c-.75,0-1.33.15-1.73.45-.33.24-.49.55-.49.91,0,.32.13.6.39.82.26.22.58.34.98.34Z" fill="#2f5250"/><path d="m109.37,111.28c.17-.41.43-.73.76-.97.34-.24.71-.36,1.11-.36.57,0,.99.16,1.26.48.27.32.41.8.42,1.45v3.45h-.26v-3.45c0-.57-.12-.98-.35-1.26-.23-.27-.59-.41-1.08-.41-.46,0-.85.16-1.18.49-.33.32-.56.74-.68,1.25v3.38h-.26v-5.28h.26v1.23Z" fill="#2f5250"/><path d="m118.12,115.33v-.85c-.16.29-.38.53-.68.7-.3.17-.68.26-1.14.26-.58,0-1.01-.17-1.3-.5-.29-.34-.44-.83-.44-1.47v-3.4h.26v3.41c0,.56.13.98.38,1.27.25.29.61.43,1.08.43.5,0,.92-.12,1.23-.36.32-.24.52-.59.6-1.04v-3.72h.27v5.28h-.27Z" fill="#2f5250"/><path d="m120.46,115.33v-5.02h-.92v-.26h.92v-.77c0-.49.13-.87.37-1.14.24-.27.58-.41,1.01-.41.24,0,.45.03.62.08l-.04.25c-.17-.05-.36-.07-.58-.07-.35,0-.62.11-.82.34-.2.23-.3.55-.3.96v.75h1.4v.26h-1.4v5.02h-.26Z" fill="#2f5250"/><path d="m126.62,115.33c-.06-.22-.1-.55-.1-.97-.21.34-.49.6-.85.79s-.77.28-1.23.28c-.49,0-.88-.13-1.18-.4-.3-.27-.45-.61-.45-1.04,0-.49.22-.87.66-1.17.44-.29,1.02-.44,1.75-.45h1.3v-.77c0-.44-.14-.79-.42-1.03s-.68-.37-1.19-.37c-.48,0-.88.12-1.21.37s-.48.55-.48.92h-.26c0-.44.19-.8.57-1.1.38-.3.84-.45,1.39-.45s1.02.14,1.36.43c.34.29.51.69.52,1.2v2.52c0,.58.05.97.14,1.18v.04h-.3Zm-2.18-.17c.5,0,.92-.11,1.28-.33s.62-.53.8-.93v-1.25h-1.22c-.75,0-1.33.15-1.73.45-.33.24-.49.55-.49.91,0,.32.13.6.39.82.26.22.58.34.98.34Z" fill="#2f5250"/><path d="m129.53,112.48h0s-.77.67-.77.67v2.19h-.26v-7.5h.26v5.02l.62-.59,2.4-2.22h.38l-2.43,2.25,2.58,3.03h-.34l-2.43-2.86Z" fill="#2f5250"/><path d="m133.81,108.62v1.43h1.2v.26h-1.2v3.75c0,.37.06.65.18.83s.33.27.61.27c.14,0,.32-.01.52-.04l.04.25c-.11.04-.29.06-.55.06-.38,0-.66-.11-.83-.32s-.25-.55-.25-1.01v-3.79h-.98v-.26h.98v-1.43h.27Z" fill="#2f5250"/><path d="m139.92,115.33v-.85c-.16.29-.38.53-.68.7-.3.17-.68.26-1.14.26-.58,0-1.01-.17-1.3-.5-.29-.34-.44-.83-.44-1.47v-3.4h.26v3.41c0,.56.13.98.38,1.27.25.29.61.43,1.08.43.5,0,.92-.12,1.23-.36.32-.24.52-.59.6-1.04v-3.72h.27v5.28h-.27Z" fill="#2f5250"/><path d="m144.18,110.24l-.34-.03c-.45,0-.83.15-1.13.44s-.5.7-.6,1.22v3.46h-.26v-5.28h.26v1.1c.14-.37.36-.66.64-.87.29-.21.65-.32,1.08-.32.15,0,.28.02.37.05l-.03.24Z" fill="#2f5250"/></g><g><path d="m102.31,19.07c.26,1.61.18,3.25-.1,4.85-.16.91-.31,1.85-.43,2.79-.14,1.09-.04,2.22-.15,3.32-.18,1.79.27,3.52.43,5.26.12,1.25.64,2.45.88,3.69.23,1.18.47,2.39.42,3.57-.05,1.24-.31,2.51-.72,3.69-.54,1.57-1.67,2.93-3.23,3.32-1.24.31-2.79.57-3.98-.5-.45-.4-.93-.82-1.22-1.32-.72-1.23-1.46-2.48-1.97-3.81-.39-1.01-.45-2.15-.61-3.24-.18-1.22-.28-2.44-.47-3.66-.16-1.02-.35-2.05-.62-3.04-.29-1.06-.58-2.14-1.09-3.11-1.78-3.42-2.33-7.01-1.93-10.84.38-3.69,1.01-7.3,2.29-10.8.73-1.99,2.22-2.72,4.13-2.86,1.83-.13,3.42.39,4.21,2.18,1.36,3.09,2.69,6.2,3.88,9.35.14.37.23.75.29,1.15Z" fill="#2f5250"/><path d="m108.67,12.71c-.26,1.61-.18,3.25.1,4.85.16.91.31,1.85.43,2.79.14,1.09.04,2.22.15,3.32.18,1.79-.27,3.52-.43,5.26-.12,1.25-.64,2.45-.88,3.69-.23,1.18-.47,2.39-.42,3.57.05,1.24.31,2.51.72,3.69.54,1.57,1.67,2.93,3.23,3.32,1.24.31,2.79.57,3.98-.5.45-.4.93-.82,1.22-1.32.72-1.23,1.46-2.48,1.97-3.81.39-1.01.45-2.15.61-3.24.18-1.22.28-2.44.47-3.66.16-1.02.35-2.05.62-3.04.29-1.06.58-2.14,1.09-3.11,1.78-3.42,2.33-7.01,1.93-10.84-.38-3.69-1.01-7.3-2.29-10.8-.73-1.99-2.22-2.72-4.13-2.86-1.83-.13-3.42.39-4.21,2.18-1.36,3.09-2.69,6.2-3.88,9.35-.14.37-.23.75-.29,1.15Z" fill="#2f5250"/></g></g></svg>