<?xml version="1.0" encoding="UTF-8"?><svg id="Ebene_2" xmlns="http://www.w3.org/2000/svg" viewBox="0 0 172.58 174.77"><g id="Ebene_1-2"><g><path d="m108.08,57.73v1.83l-34.7,60.72h15.16c2.56,0,4.79-.32,6.71-.96,1.92-.64,3.53-1.64,4.84-3.01,1.31-1.37,2.36-3.21,3.15-5.52.79-2.31,1.34-5.14,1.64-8.49h2.1c-.18,1.95-.27,4.51-.27,7.67,0,1.22.05,2.98.14,5.3.09,2.31.26,4.69.5,7.12-2.25-.12-4.72-.2-7.4-.23-2.68-.03-5.34-.05-7.99-.05h-7.35c-3.71,0-7.61.02-11.69.05-4.08.03-7.91.11-11.5.23v-1.83l34.88-60.72h-15.16c-2.68,0-4.95.31-6.8.91-1.86.61-3.41,1.58-4.66,2.92-1.25,1.34-2.24,3.15-2.97,5.43-.73,2.28-1.28,5.07-1.64,8.35h-2.1c.12-.91.2-2.01.23-3.29.03-1.28.05-2.62.05-4.02,0-1.22-.05-2.98-.14-5.3-.09-2.31-.26-4.69-.5-7.12,2.19.06,4.58.12,7.17.18,2.59.06,5.17.09,7.76.09h7.08c3.71,0,7.67-.01,11.87-.05,4.2-.03,8.06-.11,11.6-.23Z" fill="#242424"/><path d="m97.21,5.55c0,.53.02.69.05.69.05,0,.13-.43.26-.43.08,0,.17.17.27.71,3.21,16.62,19.13,27.96,37.48,27.96,2.82,0,5.71-.27,8.61-.83,4.58-.88,8.85-2.42,12.69-4.48l8.95,20.18c-14.94,8.88-24.96,25.18-24.96,43.82,0,17.09,8.41,32.22,21.32,41.46-4.23,6.12-11.06,16.1-17.14,25-7.2-4.7-15.8-7.43-25.03-7.43-13.18,0-25.06,5.56-33.42,14.46-8.36-8.9-20.24-14.46-33.42-14.46-9.24,0-17.84,2.73-25.03,7.43-6.08-8.91-12.9-18.88-17.14-25,12.91-9.24,21.32-24.37,21.32-41.46,0-18.64-10.01-34.95-24.96-43.82l8.95-20.18c3.85,2.06,8.11,3.6,12.69,4.48,2.9.56,5.78.83,8.61.83,18.34,0,34.27-11.34,37.48-27.96.1-.54.2-.71.27-.71.12,0,.21.43.26.43.03,0,.05-.16.05-.69h21.83m5.51-5.55h-32.86l-.02,3.82c-.2.48-.37,1.02-.49,1.64-1.29,6.69-5.06,12.5-10.9,16.8-5.84,4.3-13.34,6.67-21.12,6.67-2.51,0-5.05-.24-7.56-.73-3.93-.76-7.67-2.08-11.13-3.93l-5.27-2.82-2.42,5.46L2,47.1l-2,4.5,4.24,2.52c6.65,3.95,12.23,9.58,16.12,16.27,4,6.89,6.12,14.77,6.12,22.79,0,14.62-7.1,28.43-19,36.95l-4.44,3.18,3.1,4.49c4.49,6.5,11.79,17.17,17.12,24.98l3.06,4.49,4.55-2.97c6.54-4.27,14.15-6.53,22-6.53,11.24,0,21.68,4.51,29.37,12.71l4.04,4.3,4.04-4.3c7.7-8.2,18.13-12.71,29.37-12.71,7.85,0,15.46,2.26,22,6.53l4.55,2.97,3.06-4.49c5.33-7.81,12.63-18.49,17.12-24.98l3.1-4.49-4.44-3.18c-11.9-8.52-19-22.33-19-36.95,0-8.02,2.12-15.9,6.12-22.79,3.89-6.69,9.47-12.32,16.12-16.27l4.24-2.52-2-4.5-8.95-20.18-2.42-5.46-5.27,2.82c-3.46,1.85-7.2,3.17-11.13,3.93-2.51.48-5.05.73-7.56.73-7.78,0-15.28-2.37-21.12-6.67-5.84-4.3-9.61-10.11-10.9-16.8-.12-.62-.29-1.16-.49-1.64l-.02-3.82h0Z" fill="#242424"/><path d="m85.62,159.21c-2.07-1.74-4.3-3.33-6.63-4.73l1.07-1.78c2.18,1.3,4.27,2.77,6.23,4.37,1.97-1.6,4.07-3.07,6.26-4.38l1.07,1.79c-2.33,1.39-4.56,2.98-6.64,4.72l-.67-.8-.69.81Zm-10.21-6.68c-2.43-1.2-4.98-2.22-7.57-3.02l.61-1.99c2.7.83,5.35,1.89,7.87,3.14l-.92,1.86Zm21.78-.01l-.92-1.86c2.53-1.25,5.18-2.31,7.88-3.14l.61,1.99c-2.59.8-5.14,1.81-7.57,3.02Zm43.39-.81c-2.47-1.11-5.05-2.04-7.67-2.74l.54-2.01c2.73.73,5.41,1.69,7.98,2.85l-.86,1.9Zm-108.57-.01l-.85-1.9c2.57-1.16,5.26-2.12,7.99-2.85l.54,2.01c-2.62.7-5.2,1.62-7.67,2.73Zm-4.35-1.13l-4.7-6.87,1.72-1.18,4.7,6.87-1.72,1.17Zm117.27-.02l-1.72-1.17c1.54-2.26,3.14-4.59,4.7-6.87l1.72,1.18c-1.56,2.28-3.16,4.61-4.7,6.87Zm-81.03-2.09c-2.65-.59-5.36-.98-8.06-1.13l.12-2.08c2.81.17,5.63.56,8.4,1.18l-.45,2.03Zm44.8,0l-.45-2.03c2.76-.62,5.59-1.01,8.4-1.18l.12,2.08c-2.7.16-5.41.54-8.07,1.13Zm20.24-.38c-2.66-.49-5.38-.77-8.1-.83l.05-2.08c2.83.06,5.67.35,8.43.86l-.38,2.05Zm-85.28,0l-.38-2.05c2.77-.51,5.61-.79,8.43-.86l.04,2.08c-2.72.06-5.45.33-8.1.82Zm-23.05-7.8l-3.17-4.62.69-.61c.89-.79,1.76-1.61,2.59-2.45l1.48,1.46c-.65.65-1.32,1.3-2.01,1.93l2.14,3.11-1.72,1.18Zm131.37-.02l-1.72-1.18,2.12-3.09c-.69-.63-1.37-1.28-2.02-1.94l1.48-1.46c.84.85,1.72,1.68,2.61,2.47l.69.61-3.16,4.6Zm-126.92-9.31l-1.58-1.35c1.76-2.06,3.39-4.27,4.84-6.57l1.76,1.11c-1.5,2.38-3.19,4.68-5.02,6.81Zm122.44-.01c-1.83-2.14-3.52-4.43-5.02-6.81l1.76-1.11c1.45,2.3,3.08,4.51,4.84,6.57l-1.58,1.35Zm-115.28-10.46l-1.83-.98c1.28-2.4,2.39-4.91,3.31-7.46l1.96.7c-.95,2.65-2.11,5.25-3.43,7.74Zm108.14-.02c-1.32-2.48-2.48-5.09-3.43-7.74l1.96-.7c.92,2.56,2.03,5.07,3.31,7.46l-1.84.98Zm-103.42-11.75l-2-.56c.73-2.62,1.27-5.31,1.61-8l2.06.26c-.35,2.79-.92,5.58-1.67,8.3Zm98.7-.02c-.76-2.71-1.32-5.51-1.67-8.3l2.06-.26c.34,2.69.88,5.38,1.61,8l-2,.56Zm-96.65-12.49l-2.08-.11c.05-.97.08-1.95.08-2.91,0-1.74-.08-3.51-.25-5.25l2.07-.2c.17,1.8.26,3.63.26,5.44,0,1-.03,2.02-.08,3.02Zm94.61-.03c-.05-.99-.08-2-.08-2.99,0-1.82.09-3.66.26-5.47l2.07.2c-.17,1.74-.25,3.52-.25,5.27,0,.96.03,1.93.08,2.89l-2.08.11Zm-97.4-12.29c-.46-2.67-1.11-5.34-1.96-7.92l1.98-.64c.87,2.68,1.56,5.45,2.03,8.22l-2.05.35Zm100.19-.02l-2.05-.35c.47-2.77,1.16-5.53,2.03-8.21l1.98.65c-.84,2.58-1.5,5.25-1.96,7.92Zm-103.56-11.74c-1.03-2.51-2.25-4.97-3.62-7.31l1.79-1.06c1.43,2.43,2.69,4.98,3.76,7.58l-1.93.79Zm106.92-.02l-1.93-.79c1.06-2.6,2.33-5.15,3.76-7.58l1.79,1.06c-1.38,2.34-2.6,4.8-3.63,7.31Zm-112.75-10.74c-1.55-2.24-3.27-4.38-5.11-6.36l1.52-1.42c1.91,2.06,3.7,4.28,5.3,6.6l-1.71,1.18Zm118.57-.01l-1.71-1.18c1.6-2.32,3.39-4.54,5.3-6.59l1.52,1.42c-1.85,1.98-3.57,4.12-5.12,6.36Zm-126.57-9.23c-1.59-1.47-3.27-2.86-5.01-4.14l-.68-.49,1.03-2.32,1.9.84-.35.79c1.57,1.18,3.09,2.45,4.52,3.79l-1.42,1.52Zm134.58-.01l-1.41-1.52c1.43-1.33,2.95-2.6,4.51-3.77l-.36-.81,1.9-.84,1.04,2.34-.68.49c-1.74,1.27-3.42,2.66-5,4.12ZM17.94,42.21l-1.9-.84,2.47-5.57.92.35c.98.37,1.98.72,2.98,1.02l-.61,1.99c-.73-.22-1.46-.47-2.18-.73l-1.67,3.77Zm136.7-.02l-1.67-3.75c-.73.26-1.46.51-2.2.73l-.61-1.99c1.01-.31,2.02-.66,3-1.03l.92-.35,2.46,5.55-1.9.84Zm-116.1-.69l-.05-2.08c2.71-.07,5.44-.36,8.09-.88l.4,2.04c-2.77.54-5.61.85-8.44.92Zm95.5,0c-2.83-.07-5.67-.38-8.44-.92l.4-2.04c2.65.52,5.38.81,8.09.88l-.05,2.08Zm4.24-.07l-.12-2.08c2.22-.13,4.46-.41,6.65-.83.47-.09.94-.19,1.41-.29l.45,2.03c-.49.11-.98.21-1.47.3-2.28.44-4.61.73-6.93.87Zm-103.99,0c-2.31-.14-4.63-.43-6.9-.87-.5-.1-1-.2-1.49-.31l.45-2.03c.48.11.95.21,1.43.3,2.19.42,4.42.7,6.63.83l-.12,2.08Zm16.81-1.83l-.57-2c2.63-.75,5.18-1.73,7.59-2.91l.91,1.87c-2.52,1.23-5.18,2.26-7.93,3.04Zm70.36,0c-2.75-.79-5.41-1.81-7.93-3.04l.92-1.87c2.41,1.18,4.96,2.16,7.59,2.91l-.57,2Zm-58.7-5.08l-1.09-1.77c1.03-.63,2.04-1.3,3-2.01,1.21-.89,2.38-1.86,3.47-2.86l1.41,1.53c-1.15,1.06-2.38,2.08-3.65,3.01-1.01.74-2.07,1.45-3.14,2.11Zm47.04,0c-1.07-.66-2.13-1.36-3.13-2.1-1.28-.94-2.51-1.96-3.66-3.02l1.41-1.53c1.1,1.01,2.27,1.98,3.48,2.88.96.7,1.96,1.38,2.98,2l-1.08,1.78Zm-37.26-8.17l-1.56-1.38c1.8-2.04,3.37-4.26,4.68-6.59l1.81,1.02c-1.38,2.46-3.04,4.8-4.94,6.95Zm27.49,0c-1.89-2.15-3.55-4.49-4.93-6.95l1.82-1.02c1.31,2.34,2.88,4.55,4.68,6.59l-1.56,1.38Zm-20.67-10.78l-1.91-.81c.48-1.14.91-2.32,1.28-3.5l.23-.73h5.26v2.08h-3.73c-.33,1-.71,1.99-1.12,2.96Zm13.86-.01c-.41-.97-.78-1.96-1.11-2.95h-3.74v-2.08h5.27l.23.73c.36,1.17.79,2.35,1.27,3.49l-1.92.81Z" fill="#242424"/></g></g></svg>